<svg width="32" height="33" viewBox="0 0 32 33" fill="none" xmlns="http://www.w3.org/2000/svg">
<g clip-path="url(#clip0_11_635)">
<path d="M16 3.04199C13.4288 3.04199 10.9154 3.80443 8.77759 5.23289C6.63975 6.66135 4.9735 8.69167 3.98956 11.0671C3.00563 13.4425 2.74818 16.0564 3.24979 18.5782C3.7514 21.0999 4.98953 23.4163 6.80761 25.2344C8.62569 27.0525 10.9421 28.2906 13.4638 28.7922C15.9856 29.2938 18.5994 29.0364 20.9749 28.0524C23.3503 27.0685 25.3806 25.4022 26.8091 23.2644C28.2376 21.1266 29 18.6131 29 16.042C28.9957 12.5955 27.6247 9.2914 25.1876 6.85435C22.7506 4.41731 19.4465 3.04629 16 3.04199ZM21 17.042H17V21.042C17 21.3072 16.8946 21.5616 16.7071 21.7491C16.5196 21.9366 16.2652 22.042 16 22.042C15.7348 22.042 15.4804 21.9366 15.2929 21.7491C15.1054 21.5616 15 21.3072 15 21.042V17.042H11C10.7348 17.042 10.4804 16.9366 10.2929 16.7491C10.1054 16.5616 10 16.3072 10 16.042C10 15.7768 10.1054 15.5224 10.2929 15.3349C10.4804 15.1473 10.7348 15.042 11 15.042H15V11.042C15 10.7768 15.1054 10.5224 15.2929 10.3349C15.4804 10.1473 15.7348 10.042 16 10.042C16.2652 10.042 16.5196 10.1473 16.7071 10.3349C16.8946 10.5224 17 10.7768 17 11.042V15.042H21C21.2652 15.042 21.5196 15.1473 21.7071 15.3349C21.8946 15.5224 22 15.7768 22 16.042C22 16.3072 21.8946 16.5616 21.7071 16.7491C21.5196 16.9366 21.2652 17.042 21 17.042Z" fill="#F47839"/>
</g>
<defs>
<clipPath id="clip0_11_635">
<rect width="32" height="32" fill="white" transform="translate(0 0.0419922)"/>
</clipPath>
</defs>
</svg>
